<?xml version="1.0" standalone="no"?>
<!DOCTYPE svg PUBLIC "-//W3C//DTD SVG 20010904//EN"
 "http://www.w3.org/TR/2001/REC-SVG-20010904/DTD/svg10.dtd">
<svg version="1.0" xmlns="http://www.w3.org/2000/svg"
 width="1925.000000pt" height="1925.000000pt" viewBox="0 0 1925.000000 1925.000000"
 preserveAspectRatio="xMidYMid meet">
<metadata>
Created by potrace 1.14, written by Peter Selinger 2001-2017
</metadata>
<g transform="translate(0.000000,1925.000000) scale(0.100000,-0.100000)"
fill="#000000" stroke="none">
<path d="M9578 18535 c-2 -2 -19 -6 -38 -9 -87 -13 -191 -79 -241 -153 -42
-60 -123 -214 -283 -538 -197 -398 -259 -531 -410 -880 -27 -60 -57 -130 -68
-154 -10 -24 -28 -67 -39 -95 -20 -53 -23 -59 -58 -138 -12 -26 -21 -52 -21
-58 0 -6 -4 -18 -9 -28 -18 -36 -33 -72 -97 -242 -162 -430 -313 -889 -430
-1310 -9 -30 -17 -59 -18 -65 -2 -5 -8 -30 -15 -55 -7 -25 -15 -53 -17 -62 -2
-10 -6 -27 -9 -38 -3 -11 -7 -29 -10 -40 -7 -27 -12 -47 -28 -105 l-14 -50
211 -210 c490 -488 923 -1006 1247 -1495 77 -116 139 -212 139 -215 0 -2 33
-59 73 -126 40 -68 95 -168 123 -221 27 -54 51 -98 54 -98 3 0 22 33 43 73
177 347 452 763 772 1167 255 321 427 513 772 860 250 252 265 268 257 282 -3
4 -7 17 -10 28 -9 42 -13 59 -49 195 -20 77 -44 165 -53 195 -8 30 -17 60 -18
65 -3 15 -48 165 -84 280 -17 55 -32 107 -34 115 -7 29 -146 445 -155 465 -5
11 -15 38 -22 60 -6 22 -14 45 -18 50 -3 6 -7 15 -8 20 -3 14 -38 111 -61 170
-11 28 -33 87 -51 132 -53 144 -183 457 -193 471 -6 6 -8 12 -5 12 3 0 -8 30
-24 68 -46 102 -54 121 -89 202 -18 41 -50 112 -71 158 -22 46 -39 85 -39 86
0 12 -335 697 -401 821 -12 22 -25 47 -30 56 -129 264 -223 342 -423 354 -25
1 -47 1 -48 0z"/>
<path d="M12575 18162 c-54 -5 -137 -33 -179 -59 -42 -27 -168 -152 -399 -398
-73 -77 -141 -149 -152 -160 -158 -165 -635 -721 -635 -741 0 -8 22 -69 49
-137 27 -67 68 -171 91 -232 23 -60 46 -119 50 -130 25 -59 208 -585 220 -630
4 -16 20 -68 36 -115 15 -47 28 -87 29 -90 0 -3 8 -30 18 -60 39 -130 61 -203
97 -330 42 -152 53 -192 54 -202 1 -5 6 -8 11 -7 8 1 283 223 374 302 8 6 60
47 115 89 56 43 116 90 135 105 91 74 496 363 675 482 119 79 126 85 121 111
-2 9 -6 47 -10 85 -3 39 -8 86 -10 105 -2 19 -7 60 -10 90 -3 30 -7 71 -10 90
-2 19 -7 58 -11 85 -3 28 -8 64 -10 80 -2 17 -6 51 -9 76 -3 25 -8 56 -11 70
-3 13 -7 44 -10 69 -3 25 -9 70 -14 100 -5 30 -12 69 -15 86 -2 17 -7 48 -10
70 -3 21 -7 48 -9 59 -2 11 -6 38 -10 60 -3 23 -9 52 -11 65 -3 14 -8 40 -11
59 -3 18 -7 41 -9 50 -1 9 -6 36 -11 61 -4 25 -8 47 -9 50 -1 3 -5 25 -9 50
-5 25 -10 54 -12 65 -2 11 -6 31 -9 45 -3 14 -7 36 -10 50 -4 21 -19 98 -41
210 -32 161 -83 245 -193 315 -65 41 -163 64 -236 57z"/>
<path d="M6499 18136 c-131 -53 -216 -153 -248 -291 -11 -47 -14 -62 -26 -125
-8 -43 -14 -74 -20 -100 -10 -48 -15 -75 -21 -110 -3 -19 -7 -42 -9 -50 -3 -8
-7 -32 -11 -54 -3 -21 -8 -48 -10 -60 -2 -11 -7 -36 -10 -55 -3 -18 -8 -43
-10 -55 -5 -26 -13 -71 -20 -111 -3 -16 -7 -37 -9 -45 -2 -8 -6 -35 -9 -60 -3
-25 -8 -55 -10 -66 -6 -30 -14 -80 -22 -139 -3 -27 -8 -59 -10 -70 -2 -11 -7
-40 -10 -65 -3 -25 -7 -54 -9 -65 -2 -11 -6 -42 -9 -70 -4 -27 -9 -61 -11 -75
-3 -22 -11 -81 -20 -170 -2 -14 -6 -47 -9 -75 -9 -76 -15 -133 -22 -210 -3
-38 -6 -73 -7 -77 -1 -3 64 -51 144 -105 240 -161 349 -239 587 -418 233 -176
413 -319 619 -494 40 -33 74 -61 76 -61 3 0 8 17 12 38 11 53 11 52 26 102 7
25 13 50 15 55 7 30 80 276 111 375 19 63 36 119 37 125 1 5 7 24 13 40 6 17
25 73 41 125 17 52 56 167 87 255 31 88 61 174 67 190 10 31 74 201 135 360
19 50 41 102 49 117 8 15 14 29 14 30 -1 3 5 23 31 90 l19 48 -117 137 c-291
343 -565 645 -903 995 -173 179 -238 216 -388 216 -59 0 -93 -5 -133 -22z"/>
<path d="M3317 16735 c-65 -18 -152 -71 -194 -120 -20 -22 -49 -69 -66 -105
-28 -58 -31 -75 -31 -160 0 -86 9 -248 18 -340 3 -19 7 -75 11 -125 3 -49 8
-101 10 -115 2 -14 7 -56 10 -95 3 -38 8 -86 10 -105 2 -19 7 -62 10 -95 3
-33 8 -71 10 -85 2 -14 6 -50 10 -81 3 -31 7 -66 10 -77 2 -11 6 -48 10 -81 3
-33 8 -70 11 -83 2 -13 7 -43 10 -68 3 -25 7 -56 9 -70 2 -14 7 -47 11 -75 3
-27 8 -59 10 -70 3 -11 6 -36 9 -55 3 -19 7 -46 10 -60 3 -14 7 -41 10 -60 3
-19 7 -46 10 -60 3 -14 7 -38 10 -55 5 -33 12 -75 20 -115 3 -14 8 -38 11 -55
2 -16 7 -37 9 -45 3 -8 7 -33 11 -55 3 -22 17 -92 31 -155 13 -63 28 -135 33
-160 5 -25 12 -56 15 -70 3 -14 8 -36 11 -50 3 -14 12 -52 21 -85 15 -61 20
-82 29 -121 7 -38 64 -258 75 -290 5 -17 11 -40 14 -50 6 -29 81 -293 98 -344
20 -61 80 -253 83 -265 1 -5 28 -82 59 -170 81 -228 91 -256 105 -290 7 -16
14 -34 16 -40 3 -13 102 -260 119 -300 8 -16 44 -100 80 -185 61 -140 276
-584 358 -735 93 -174 259 -456 359 -610 266 -411 453 -649 723 -920 270 -271
508 -458 799 -625 97 -56 327 -170 342 -170 3 0 20 -7 37 -15 78 -36 298 -105
420 -130 10 -2 27 -7 37 -10 10 -3 31 -7 46 -10 16 -2 46 -6 67 -9 82 -13 111
-16 180 -22 85 -6 92 -17 -79 119 -423 336 -808 838 -1103 1440 -80 162 -194
428 -230 535 -11 31 -31 91 -46 132 -28 77 -94 283 -100 310 -2 8 -8 27 -14
43 -6 15 -8 27 -6 27 2 0 0 12 -6 28 -6 15 -12 34 -14 42 -2 8 -18 67 -34 130
-30 112 -79 307 -86 343 -2 10 -6 26 -9 35 -3 9 -7 28 -10 42 -2 14 -9 45 -15
70 -5 25 -12 56 -15 70 -20 101 -37 188 -42 214 -2 17 -7 38 -9 46 -4 15 -9
41 -20 114 -4 21 -9 48 -11 60 -2 11 -6 37 -9 56 -3 19 -7 46 -10 60 -3 14 -7
39 -9 55 -3 17 -7 44 -10 60 -3 17 -8 50 -11 75 -3 25 -8 56 -10 70 -2 14 -6
45 -9 70 -3 25 -8 54 -10 65 -2 11 -7 54 -11 95 -4 41 -8 77 -10 80 -2 3 -6
39 -10 80 -3 41 -8 91 -10 110 -2 19 -6 64 -9 100 -4 36 -8 85 -11 109 -2 24
-7 89 -11 145 -3 55 -8 119 -9 141 -15 204 -20 427 -20 870 0 555 9 805 40
1191 l6 71 -88 55 c-101 65 -443 268 -449 268 -2 0 -21 11 -42 23 -108 68
-529 296 -742 401 -105 53 -100 50 -155 79 -99 52 -409 200 -439 209 -49 16
-176 17 -229 3z"/>
<path d="M15715 16736 c-124 -39 -859 -409 -1205 -606 -36 -21 -119 -68 -185
-106 -121 -69 -369 -218 -482 -289 l-61 -39 4 -45 c41 -477 58 -1170 40 -1686
-8 -232 -9 -252 -21 -435 -14 -218 -40 -518 -50 -580 -2 -14 -7 -52 -10 -85
-3 -33 -8 -76 -10 -95 -3 -19 -7 -53 -10 -75 -3 -22 -7 -49 -9 -61 -2 -11 -7
-45 -11 -75 -7 -62 -11 -92 -19 -134 -2 -16 -8 -50 -12 -75 -3 -25 -8 -54 -10
-65 -2 -11 -5 -33 -8 -50 -4 -28 -21 -122 -30 -171 -2 -12 -7 -37 -10 -55 -6
-39 -6 -37 -36 -179 -12 -58 -24 -114 -26 -125 -13 -72 -93 -395 -159 -645
-39 -147 -159 -514 -215 -655 -274 -696 -622 -1247 -1059 -1675 -139 -136
-169 -162 -367 -318 l-29 -22 80 5 c44 3 91 7 105 9 93 13 126 19 130 21 3 2
23 6 45 9 33 5 93 20 205 50 8 2 63 20 122 40 636 214 1263 705 1769 1386 135
181 393 579 489 755 18 33 36 65 40 70 39 54 265 493 380 740 49 104 171 385
174 400 1 6 4 15 8 20 5 9 70 172 73 185 1 3 7 19 14 35 13 31 77 201 91 245
5 14 23 63 40 110 17 47 33 92 35 100 2 8 19 62 38 120 41 125 98 307 101 324
1 6 10 38 20 71 10 33 19 67 21 75 2 8 8 26 13 40 5 14 10 30 11 35 1 6 6 28
12 50 6 22 13 47 14 55 2 8 24 96 50 195 25 99 48 193 51 209 2 16 6 32 8 35
2 3 7 24 10 46 4 22 11 54 16 70 5 17 11 44 14 60 3 17 7 41 10 55 8 34 25
120 31 148 2 13 6 31 9 40 3 9 7 33 10 52 3 19 8 46 11 60 2 14 7 36 10 50 2
14 7 41 10 60 3 19 8 49 12 65 3 17 7 39 9 50 2 11 5 34 8 50 3 17 7 44 10 60
2 17 7 44 10 60 2 17 7 48 11 70 3 23 7 50 9 61 2 12 7 45 11 74 4 29 8 62 11
73 2 11 6 41 9 66 3 25 7 57 10 71 2 14 7 50 10 80 6 58 10 85 20 160 5 43 9
70 20 187 3 29 8 72 10 95 3 24 7 70 10 103 3 33 7 80 10 105 3 25 7 72 10
105 2 33 7 101 12 150 4 50 7 149 8 220 0 124 -1 133 -30 190 -41 83 -119 159
-202 197 -55 25 -83 32 -148 34 -44 1 -98 -3 -120 -10z"/>
<path d="M13300 15381 c-468 -324 -678 -486 -1101 -848 -92 -78 -180 -155
-196 -170 -16 -15 -80 -75 -143 -133 -440 -404 -918 -932 -1244 -1375 -17 -22
-32 -42 -36 -45 -24 -22 -290 -427 -380 -580 -125 -212 -279 -527 -357 -730
-24 -62 -111 -319 -118 -350 -3 -8 -11 -40 -20 -70 -9 -30 -18 -64 -20 -74 -2
-10 -9 -33 -14 -50 -6 -17 -24 -92 -40 -166 -28 -124 -33 -154 -46 -232 -7
-40 -14 -80 -19 -104 -2 -12 -8 -45 -11 -75 -4 -30 -9 -63 -10 -74 -4 -27 -15
-121 -20 -170 -24 -224 -24 -647 -1 -775 3 -14 7 -45 10 -70 10 -76 17 -113
32 -165 2 -5 5 -20 8 -31 52 -235 196 -462 370 -585 154 -109 342 -150 576
-126 108 11 140 18 255 52 134 40 189 61 313 124 709 354 1326 1121 1668 2074
33 90 135 397 139 417 2 8 8 27 14 43 6 15 13 38 15 50 3 12 12 47 21 77 19
63 44 155 51 187 2 12 9 34 14 48 5 14 8 25 5 25 -2 0 2 18 10 40 8 22 12 40
10 40 -3 0 0 11 5 25 5 14 12 36 14 48 2 12 9 40 14 62 6 22 14 54 16 70 9 48
15 75 20 93 3 9 8 31 11 47 5 34 10 58 25 130 6 28 12 61 15 75 3 14 7 36 10
50 2 14 7 41 10 60 3 19 7 46 10 60 3 14 7 41 10 60 3 19 8 49 11 65 9 54 13
79 19 125 3 25 8 56 10 70 8 54 16 109 20 146 2 21 7 62 11 89 8 67 11 89 18
165 4 36 9 81 11 100 3 19 7 66 11 105 3 38 7 86 9 105 7 71 20 264 31 490 11
195 11 1076 1 1275 -8 169 -18 319 -20 322 -1 1 -13 -6 -27 -16z"/>
<path d="M5909 15358 c-1 -18 -3 -51 -4 -73 -27 -413 -27 -1250 0 -1650 6 -95
18 -260 20 -290 9 -106 22 -246 30 -315 2 -25 7 -67 10 -95 6 -56 13 -113 20
-165 9 -68 16 -116 20 -154 7 -62 16 -120 20 -136 2 -8 7 -35 10 -60 2 -25 7
-56 10 -70 3 -14 8 -41 11 -60 9 -59 11 -74 19 -115 14 -72 15 -80 20 -110 3
-16 8 -37 10 -45 2 -8 7 -31 10 -50 3 -19 8 -42 10 -50 2 -8 7 -31 10 -50 3
-19 8 -42 10 -50 2 -8 7 -31 10 -50 3 -19 13 -62 22 -95 8 -33 17 -71 20 -85
3 -19 50 -201 97 -380 2 -8 9 -28 16 -45 6 -16 11 -32 11 -35 -1 -8 20 -81 36
-129 8 -24 16 -51 18 -60 8 -38 133 -378 183 -496 377 -896 943 -1564 1602
-1890 111 -54 289 -120 380 -141 19 -4 40 -9 45 -10 12 -3 57 -11 135 -23 60
-10 393 -7 450 4 19 3 44 8 55 10 82 13 145 29 145 36 0 4 -14 29 -32 55 -35
52 -121 216 -131 249 -3 11 -20 61 -37 110 -18 50 -33 97 -35 105 -2 8 -10 42
-19 75 -8 33 -18 76 -21 95 -3 19 -8 46 -10 60 -11 55 -14 71 -20 122 -3 29
-8 67 -10 83 -27 195 -22 613 11 885 3 30 7 66 9 80 1 14 6 44 9 67 4 23 9 56
11 73 7 47 13 82 19 118 3 17 8 44 11 60 3 15 7 38 10 52 3 14 10 45 15 70 5
25 12 55 15 68 3 12 7 30 9 40 2 9 14 55 26 102 12 47 23 90 24 95 17 67 62
216 113 363 l35 103 -22 52 c-46 107 -64 146 -137 295 -70 142 -213 403 -253
461 -10 14 -51 78 -93 141 -418 640 -1085 1387 -1762 1971 -125 108 -338 286
-390 326 -16 13 -37 29 -45 36 -147 123 -728 547 -750 547 -5 0 -11 -15 -11
-32z"/>
<path d="M1105 14421 c-68 -24 -93 -38 -141 -77 -108 -87 -163 -259 -130 -402
11 -47 70 -162 196 -377 10 -16 50 -86 90 -155 159 -273 559 -895 694 -1078
39 -53 49 -61 65 -53 10 6 35 16 57 24 21 8 111 42 199 75 359 135 572 208
1012 343 34 11 34 4 2 102 -5 17 -12 41 -14 52 -3 11 -13 47 -24 80 -20 64
-41 137 -47 170 -2 11 -10 43 -19 70 -8 28 -20 70 -26 95 -7 25 -14 50 -15 55
-5 18 -14 54 -19 76 -2 12 -13 56 -24 98 -11 42 -22 87 -25 101 -9 46 -15 72
-20 88 -3 9 -8 32 -11 51 -3 19 -7 37 -9 40 -2 3 -7 23 -10 43 -3 21 -11 59
-17 85 -15 65 -18 83 -24 118 -3 17 -12 62 -20 100 -8 39 -17 86 -20 105 -9
57 -15 70 -33 71 -9 0 -26 2 -37 4 -17 3 -87 12 -165 20 -213 23 -215 23 -307
30 -43 4 -94 8 -113 10 -102 10 -249 21 -414 31 -208 12 -245 13 -411 18 -147
5 -177 3 -220 -13z"/>
<path d="M17827 14433 c-1 -1 -63 -4 -137 -7 -74 -4 -164 -9 -200 -11 -36 -2
-103 -7 -150 -10 -47 -3 -105 -7 -130 -10 -40 -4 -89 -8 -241 -20 -66 -6 -169
-15 -209 -20 -19 -2 -60 -7 -90 -10 -179 -19 -214 -25 -221 -37 -4 -6 -10 -34
-14 -62 -4 -28 -8 -58 -10 -66 -2 -8 -6 -28 -9 -45 -3 -16 -8 -41 -11 -55 -3
-14 -7 -36 -10 -50 -6 -33 -11 -55 -24 -110 -5 -25 -13 -60 -16 -79 -3 -19 -7
-37 -9 -40 -2 -3 -7 -24 -10 -46 -4 -22 -9 -48 -12 -57 -3 -9 -7 -25 -9 -35
-20 -99 -110 -449 -165 -643 -23 -80 -43 -152 -45 -160 -2 -8 -10 -35 -19 -60
-26 -75 -41 -64 174 -130 74 -23 144 -44 155 -48 11 -3 22 -7 25 -7 3 -1 12
-4 20 -8 8 -3 76 -26 150 -51 219 -73 467 -162 575 -206 112 -46 199 -79 201
-77 30 35 296 430 439 652 126 197 347 564 450 749 15 28 40 70 55 95 66 114
83 162 86 253 3 70 -1 99 -18 148 -42 117 -141 213 -255 249 -49 15 -87 19
-188 18 -70 -1 -127 -3 -128 -4z"/>
<path d="M3215 12254 c-176 -55 -581 -188 -595 -195 -8 -4 -42 -17 -75 -28
-177 -59 -667 -250 -860 -336 -16 -7 -52 -23 -80 -36 -27 -12 -54 -23 -60 -24
-5 -2 -44 -19 -85 -38 -41 -19 -97 -45 -125 -57 -227 -102 -375 -174 -745
-361 -208 -105 -253 -132 -301 -179 -80 -79 -115 -159 -118 -276 -4 -120 55
-250 141 -316 31 -23 166 -108 173 -108 2 0 32 -17 66 -38 66 -40 75 -45 269
-154 109 -62 158 -88 330 -180 190 -102 743 -377 770 -383 3 -1 39 -17 80 -37
70 -33 101 -47 213 -97 107 -48 547 -231 555 -231 4 0 45 -15 92 -34 81 -32
122 -48 127 -47 2 0 20 -7 40 -16 40 -16 268 -97 388 -137 86 -29 278 -90 285
-91 3 0 44 -13 92 -28 48 -16 95 -30 105 -32 10 -2 52 -13 93 -25 99 -28 221
-61 243 -66 10 -2 27 -6 37 -9 10 -3 28 -8 39 -10 12 -3 30 -7 41 -10 11 -3
28 -7 38 -9 36 -9 248 -58 267 -62 11 -2 52 -10 90 -18 39 -9 82 -18 98 -20
15 -3 35 -7 45 -10 9 -3 33 -7 52 -10 33 -5 50 -9 110 -21 14 -3 43 -7 65 -11
67 -9 99 -15 115 -19 13 -3 48 -8 137 -20 13 -2 42 -6 65 -10 63 -10 87 -13
148 -20 30 -3 66 -8 80 -10 14 -2 52 -7 85 -10 33 -3 83 -8 110 -11 85 -9 135
-12 135 -8 0 2 -39 29 -87 60 -539 347 -1022 850 -1456 1515 -150 231 -252
402 -411 689 -50 90 -275 540 -311 620 -15 36 -43 98 -62 138 -18 39 -33 74
-33 77 0 2 -11 28 -24 57 -14 29 -45 105 -71 168 -25 63 -50 124 -55 135 -5
11 -23 58 -40 105 -17 47 -35 94 -40 105 -5 11 -23 62 -41 113 -23 66 -36 92
-48 91 -9 0 -52 -12 -96 -25z"/>
<path d="M15907 12258 c-3 -12 -17 -54 -32 -93 -14 -38 -28 -74 -29 -80 -2 -5
-8 -23 -15 -40 -6 -16 -25 -66 -42 -110 -29 -75 -55 -140 -85 -210 -7 -16 -22
-54 -34 -84 -12 -30 -32 -78 -45 -105 -13 -28 -38 -85 -55 -126 -257 -595
-678 -1327 -1045 -1815 -338 -449 -729 -825 -1147 -1102 -71 -46 -128 -86
-128 -88 0 -2 17 -2 38 0 64 6 155 15 202 20 25 3 63 7 85 10 22 2 54 6 70 9
17 2 55 7 86 11 31 3 67 8 80 10 13 3 42 7 64 10 22 3 54 7 70 10 38 6 80 13
129 21 21 3 48 8 60 10 11 2 37 7 56 10 19 3 76 14 125 24 50 10 103 21 119
24 28 5 101 20 156 32 14 3 36 7 50 10 20 4 175 41 253 60 9 2 25 6 35 8 61
14 311 81 382 102 47 14 130 39 185 55 55 17 188 59 295 95 107 35 202 66 210
68 8 3 53 19 100 36 47 17 119 44 160 59 114 43 490 191 535 212 52 23 114 48
120 48 3 0 18 7 33 15 15 8 61 29 102 47 41 17 118 52 170 76 52 25 111 52
130 60 19 9 166 80 325 159 270 134 351 175 545 281 41 22 107 58 145 78 39
21 72 41 75 44 3 3 30 20 62 36 120 64 213 118 216 126 2 5 8 9 14 9 16 0 176
99 213 132 40 34 92 113 106 160 37 117 28 216 -26 323 -39 75 -91 126 -180
173 -27 15 -52 29 -55 32 -12 12 -823 410 -835 410 -2 0 -36 15 -77 34 -40 18
-122 55 -183 81 -60 26 -132 58 -160 70 -27 12 -160 66 -295 120 -135 53 -259
103 -277 111 -17 8 -36 14 -42 14 -6 0 -19 5 -29 10 -22 13 -196 74 -447 157
-110 36 -209 70 -220 74 -18 7 -55 19 -80 25 -5 2 -48 15 -95 30 -127 39 -136
40 -143 12z"/>
<path d="M3645 8266 c-176 -86 -153 -355 47 -554 157 -155 378 -264 667 -327
11 -3 31 -7 44 -10 21 -5 33 -7 117 -22 19 -3 44 -7 55 -9 11 -2 43 -6 70 -9
28 -3 68 -8 90 -10 231 -25 838 -25 1115 0 25 2 79 7 120 10 41 3 93 7 115 9
22 3 74 7 115 11 41 3 86 8 100 10 14 2 55 6 92 10 37 3 76 8 87 10 11 2 46 6
78 10 32 3 69 8 83 10 14 2 45 7 70 9 72 8 182 22 240 31 14 2 45 6 70 10 25
3 56 8 70 10 14 3 41 7 60 9 34 5 72 10 148 22 20 3 50 7 65 9 93 13 114 16
127 20 13 4 60 11 130 20 14 2 39 6 55 9 17 3 48 7 70 11 23 3 52 7 65 10 13
3 42 7 65 10 48 7 78 12 183 30 61 10 87 14 132 20 25 3 52 8 60 10 8 2 35 7
60 10 25 2 54 7 65 9 11 2 42 7 68 10 27 4 57 9 66 11 10 2 42 6 71 10 29 4
60 8 69 10 9 1 39 6 66 9 28 4 61 9 75 11 14 2 48 7 75 10 28 4 61 8 75 10 31
5 147 17 179 19 32 3 60 39 53 71 -4 25 -32 48 -62 51 -14 2 -112 11 -200 19
-205 20 -793 26 -1175 12 -104 -4 -282 -10 -395 -14 -416 -15 -1196 -8 -1450
12 -25 2 -83 6 -130 10 -47 3 -103 8 -125 10 -62 6 -167 17 -195 20 -14 2 -52
6 -85 9 -33 4 -70 8 -81 10 -12 2 -43 7 -70 10 -71 9 -104 14 -149 21 -22 3
-51 8 -65 10 -14 2 -68 11 -120 20 -52 9 -108 18 -125 21 -16 2 -43 7 -60 11
-16 3 -39 7 -50 9 -11 2 -31 5 -45 9 -14 3 -36 7 -50 10 -14 3 -36 7 -50 10
-14 3 -38 8 -55 10 -16 3 -38 8 -47 11 -9 3 -25 7 -35 9 -10 2 -52 11 -93 20
-41 9 -82 18 -90 20 -8 2 -44 11 -80 20 -36 9 -73 19 -83 21 -10 2 -27 6 -37
9 -10 3 -27 8 -37 10 -10 2 -43 11 -73 20 -81 24 -179 28 -215 11z"/>
<path d="M15420 8264 c-30 -9 -62 -17 -71 -19 -8 -2 -60 -15 -115 -29 -54 -15
-108 -28 -119 -31 -11 -2 -72 -16 -135 -30 -121 -28 -140 -32 -180 -40 -52
-10 -72 -14 -88 -19 -9 -3 -33 -7 -52 -10 -19 -3 -46 -8 -60 -11 -14 -3 -38
-7 -55 -10 -16 -3 -41 -8 -55 -10 -60 -12 -78 -15 -120 -21 -25 -3 -52 -7 -60
-9 -8 -3 -33 -7 -55 -10 -22 -4 -52 -8 -66 -11 -15 -2 -47 -6 -70 -9 -24 -3
-55 -8 -69 -10 -29 -5 -84 -12 -160 -21 -30 -3 -68 -8 -85 -10 -16 -2 -59 -6
-95 -10 -36 -3 -81 -7 -100 -9 -31 -3 -153 -13 -265 -20 -283 -20 -1048 -26
-1440 -12 -501 18 -614 21 -935 21 -299 0 -539 -7 -645 -18 -16 -2 -61 -7
-100 -10 -38 -4 -79 -9 -90 -11 -11 -2 -23 -4 -27 -4 -17 -2 -38 -35 -38 -60
0 -36 19 -52 67 -57 21 -2 56 -6 78 -8 22 -3 63 -8 90 -11 28 -3 61 -8 75 -10
14 -2 48 -7 75 -10 28 -3 61 -8 75 -10 14 -3 43 -7 65 -10 22 -3 49 -7 61 -9
12 -2 45 -7 74 -11 29 -4 62 -9 74 -11 12 -2 38 -6 60 -9 41 -5 86 -13 126
-20 28 -5 65 -11 125 -20 23 -3 52 -8 65 -10 14 -3 45 -8 70 -10 25 -3 52 -8
60 -10 8 -2 35 -7 60 -11 67 -9 81 -11 125 -19 59 -9 85 -14 130 -20 22 -4 51
-8 65 -10 14 -3 43 -7 65 -10 22 -4 54 -9 70 -11 17 -3 45 -7 64 -10 19 -2 46
-6 60 -9 14 -2 44 -6 66 -10 23 -3 50 -7 60 -9 11 -2 45 -7 75 -11 51 -6 69
-9 140 -20 14 -2 49 -7 79 -10 30 -4 61 -8 70 -10 9 -1 43 -6 76 -10 33 -3 74
-8 90 -10 17 -2 50 -7 75 -10 25 -3 61 -7 80 -9 19 -3 62 -8 95 -11 33 -3 71
-8 85 -10 14 -2 61 -7 105 -11 44 -3 94 -8 110 -9 503 -49 1130 -53 1445 -10
25 4 59 8 75 11 39 5 84 12 115 19 14 3 39 8 55 10 17 3 38 8 47 11 9 3 25 6
35 8 10 2 45 12 78 22 33 10 65 19 70 20 27 5 147 55 205 84 103 52 164 94
242 169 137 130 199 253 192 383 -8 169 -118 240 -294 192z"/>
<path d="M8587 6534 c-1 -1 -47 -4 -102 -8 -55 -3 -111 -8 -125 -11 -28 -5
-95 -14 -155 -21 -21 -2 -55 -9 -75 -14 -19 -5 -48 -12 -65 -15 -63 -12 -77
-16 -192 -50 -65 -20 -122 -37 -128 -38 -5 -1 -48 -18 -95 -37 -469 -188 -839
-512 -1021 -894 -87 -184 -125 -325 -146 -541 -11 -119 -5 -359 11 -440 2 -11
7 -40 11 -65 90 -579 498 -1021 1134 -1230 88 -29 183 -55 236 -64 17 -3 39
-8 50 -10 11 -2 81 -16 155 -31 74 -15 160 -33 190 -40 30 -8 75 -17 100 -20
25 -3 53 -8 62 -11 18 -5 46 -11 93 -20 17 -2 46 -9 65 -14 19 -5 53 -11 75
-15 22 -3 56 -10 75 -15 19 -5 49 -12 65 -15 52 -9 77 -14 200 -41 312 -67
526 -147 670 -249 86 -61 161 -145 195 -217 37 -80 42 -102 45 -215 7 -243
-117 -429 -373 -558 -63 -31 -218 -87 -275 -99 -12 -3 -33 -8 -47 -11 -46 -10
-106 -19 -205 -32 -123 -15 -441 -8 -535 12 -14 3 -38 8 -55 11 -133 24 -314
96 -435 175 -196 126 -331 306 -390 519 -13 47 -26 87 -28 90 -4 6 -1230 8
-1254 2 -13 -3 -16 -12 -13 -36 3 -17 7 -44 9 -61 7 -54 26 -159 36 -200 6
-22 12 -47 14 -55 3 -8 9 -27 15 -43 6 -15 9 -27 6 -27 -2 0 14 -44 36 -97
218 -522 679 -914 1335 -1131 49 -17 103 -33 119 -38 17 -4 35 -8 40 -10 6 -2
20 -5 33 -8 12 -3 31 -8 42 -11 64 -16 150 -34 195 -40 17 -3 41 -7 55 -10 23
-5 56 -9 140 -20 204 -26 609 -26 845 0 51 5 135 16 156 20 9 2 32 6 50 9 35
6 65 12 109 21 14 3 36 7 49 10 106 20 345 95 447 140 477 211 795 481 982
835 46 87 105 241 117 308 3 15 7 38 10 52 17 78 20 123 20 300 0 170 -7 289
-20 340 -2 8 -7 40 -10 70 -4 30 -9 58 -11 61 -2 4 -6 24 -10 45 -5 38 -55
198 -73 239 -111 244 -175 342 -320 489 -142 144 -295 254 -469 339 -111 54
-254 112 -302 122 -8 1 -38 10 -66 20 -28 9 -57 18 -65 19 -8 1 -32 8 -54 14
-22 6 -51 13 -65 16 -41 8 -71 15 -88 20 -9 3 -37 8 -62 11 -24 4 -47 8 -50
10 -3 2 -23 6 -45 9 -22 4 -53 11 -70 16 -16 5 -46 11 -65 14 -19 3 -78 14
-130 25 -53 11 -113 23 -135 27 -22 3 -43 8 -46 10 -4 2 -24 6 -45 9 -22 4
-47 8 -56 11 -10 3 -30 8 -45 10 -16 3 -66 14 -113 24 -90 20 -123 27 -180 36
-19 3 -38 8 -41 10 -3 2 -21 6 -40 9 -46 8 -188 50 -274 82 -190 70 -314 163
-379 286 -20 37 -34 67 -31 67 2 0 0 11 -5 24 -21 55 -29 192 -15 256 3 14 8
38 11 55 7 41 57 141 99 197 104 141 327 261 565 304 19 4 44 8 55 10 121 23
423 22 550 -1 324 -61 504 -157 647 -346 55 -71 117 -218 134 -316 3 -15 9
-46 14 -67 5 -22 7 -43 4 -47 -2 -4 -1 -14 2 -23 6 -14 69 -16 629 -16 l622 0
-3 73 c-3 79 -12 184 -19 207 -2 8 -6 31 -9 50 -5 33 -13 72 -20 95 -2 6 -6
24 -10 40 -34 137 -123 333 -214 472 -190 288 -481 522 -847 680 -69 30 -230
88 -275 99 -8 2 -40 10 -70 18 -30 8 -66 17 -80 20 -14 3 -36 7 -50 10 -46 10
-75 16 -105 20 -175 27 -217 32 -335 42 -71 6 -487 13 -493 8z"/>
<path d="M840 3518 l0 -2918 615 0 615 0 2 1944 3 1944 270 -390 c149 -215
300 -434 337 -487 37 -53 110 -159 163 -236 53 -77 117 -169 142 -205 24 -36
113 -164 197 -285 84 -121 173 -249 198 -285 48 -69 275 -397 373 -540 58 -84
279 -403 340 -490 17 -25 56 -81 87 -125 30 -44 97 -141 148 -215 52 -74 123
-178 159 -230 37 -53 113 -164 171 -248 l105 -152 553 0 552 0 0 2918 0 2917
-612 -1 c-337 -1 -615 -2 -618 -3 -3 0 -5 -840 -5 -1866 0 -1025 -3 -1861 -7
-1857 -5 6 -461 663 -755 1090 -54 78 -162 235 -240 347 -79 113 -143 209
-143 214 0 5 -4 11 -8 13 -4 2 -59 77 -122 168 -62 91 -117 167 -122 168 -4 2
-8 8 -8 13 0 6 -35 60 -78 122 -44 62 -209 301 -369 532 -159 231 -313 454
-342 495 -29 41 -98 142 -154 223 -56 81 -132 192 -169 245 l-68 97 -605 0
-605 0 0 -2917z"/>
<path d="M11193 6422 c-3 -7 -1 -25 5 -40 5 -15 20 -61 32 -102 12 -41 31
-104 42 -140 11 -36 21 -72 23 -80 6 -28 83 -285 94 -312 6 -16 8 -28 6 -28
-3 0 1 -17 9 -37 13 -34 40 -124 81 -268 8 -27 30 -103 50 -168 20 -64 38
-126 40 -138 2 -11 18 -66 35 -122 17 -56 34 -111 38 -122 3 -11 7 -24 8 -30
2 -5 12 -41 24 -80 12 -38 22 -74 24 -80 15 -56 30 -108 43 -145 8 -25 16 -52
18 -61 2 -9 18 -63 35 -120 17 -57 33 -111 35 -119 4 -17 76 -258 106 -360 11
-36 22 -72 24 -81 2 -9 13 -49 26 -90 12 -41 23 -78 25 -84 1 -5 18 -64 38
-130 21 -66 38 -124 40 -130 1 -5 8 -30 15 -55 6 -25 16 -56 22 -70 5 -14 11
-36 14 -49 2 -14 13 -52 24 -85 10 -34 28 -92 39 -131 12 -38 31 -104 43 -145
12 -41 24 -79 25 -85 1 -5 12 -41 24 -80 11 -38 23 -79 26 -90 7 -28 10 -38
16 -55 18 -52 30 -93 34 -114 2 -13 11 -43 20 -67 8 -24 17 -53 20 -64 2 -11
11 -45 20 -75 9 -30 25 -82 35 -115 9 -33 26 -89 37 -125 17 -53 31 -102 47
-160 1 -3 7 -25 14 -50 7 -25 24 -81 38 -125 13 -44 26 -87 28 -95 2 -8 13
-46 25 -85 12 -38 23 -79 25 -90 3 -11 14 -49 26 -85 11 -36 22 -72 24 -80 2
-9 15 -54 29 -100 62 -204 98 -326 101 -344 3 -10 10 -35 17 -55 14 -41 15
-46 17 -66 1 -13 62 -15 489 -15 l488 0 28 98 c15 53 31 111 36 127 4 17 29
102 55 190 26 88 48 167 50 175 4 18 41 142 56 187 5 18 12 40 14 50 2 10 8
30 14 45 6 16 8 28 6 28 -3 0 1 17 9 37 18 51 14 38 146 493 11 36 44 153 75
260 31 107 63 218 72 245 8 28 17 57 18 65 2 8 13 44 24 80 11 36 27 90 35
120 8 30 42 150 76 265 34 116 62 215 64 220 3 11 35 119 67 225 10 36 21 74
24 85 2 11 23 83 45 160 23 77 43 147 46 155 2 8 10 38 18 65 24 81 47 159 50
170 1 6 11 39 21 74 l19 64 28 -99 c16 -54 31 -106 33 -114 1 -8 20 -71 40
-140 20 -69 43 -150 51 -180 8 -30 19 -66 24 -80 6 -14 12 -34 14 -45 2 -11
14 -54 26 -95 12 -41 24 -84 27 -95 2 -11 7 -27 10 -35 3 -8 7 -19 9 -25 5
-20 63 -223 89 -310 14 -49 28 -97 30 -106 2 -9 18 -63 35 -120 17 -57 33
-113 36 -124 2 -11 13 -51 25 -90 34 -115 53 -180 68 -235 5 -19 26 -91 46
-160 48 -165 64 -222 69 -240 3 -12 73 -253 132 -455 8 -27 17 -58 19 -68 2
-9 6 -21 9 -25 3 -5 7 -21 10 -36 3 -15 13 -53 22 -84 10 -31 18 -61 20 -67 1
-5 30 -104 64 -220 34 -116 63 -217 65 -225 2 -8 11 -40 20 -70 9 -30 21 -74
27 -98 l10 -42 495 2 c432 3 496 5 499 18 1 8 19 69 39 135 20 66 38 127 40
135 3 8 19 62 36 120 17 58 37 125 44 150 7 25 32 108 55 185 40 134 66 223
75 255 2 8 14 47 25 85 12 39 25 84 30 101 4 18 10 36 13 41 3 5 8 20 11 34 3
13 14 56 26 94 12 39 23 77 25 85 2 8 13 47 25 85 12 39 26 86 32 105 5 19 30
103 55 185 24 83 46 157 48 165 2 8 13 47 25 85 13 39 23 75 25 80 3 19 36
129 56 191 11 33 22 69 24 80 3 10 13 48 24 84 11 36 42 142 69 235 28 94 55
181 60 195 5 14 9 27 9 30 0 3 5 21 11 40 36 120 64 212 67 227 4 20 85 293
140 473 19 64 37 125 39 135 2 11 9 32 15 48 6 15 13 38 15 50 2 12 13 51 25
87 12 36 23 74 25 85 3 11 21 74 41 140 20 66 39 129 41 140 2 11 8 31 13 45
6 14 16 45 22 70 15 54 10 39 54 185 20 66 38 131 41 144 3 13 9 32 14 41 5 9
11 28 14 41 3 13 15 56 26 94 12 39 23 77 25 85 3 8 21 69 40 135 20 66 38
127 40 135 2 8 26 89 53 180 65 216 72 240 78 270 l5 26 -603 -1 -602 0 -14
-45 c-7 -25 -15 -52 -17 -60 -3 -8 -14 -49 -25 -90 -12 -41 -23 -86 -26 -99
-3 -14 -8 -29 -11 -34 -3 -5 -9 -23 -14 -41 -4 -17 -13 -49 -19 -71 -6 -22
-12 -47 -14 -55 -3 -8 -28 -96 -56 -195 -29 -99 -53 -187 -55 -195 -2 -8 -18
-64 -35 -125 -18 -60 -33 -117 -35 -125 -2 -8 -11 -42 -21 -75 -10 -33 -19
-64 -20 -70 -23 -84 -48 -170 -74 -260 -18 -60 -34 -118 -35 -128 -2 -9 -6
-21 -9 -25 -3 -5 -7 -19 -10 -33 -6 -25 -11 -44 -46 -169 -12 -41 -23 -82 -25
-90 -2 -8 -11 -40 -20 -70 -9 -30 -18 -62 -20 -70 -2 -8 -18 -64 -35 -123 -17
-60 -33 -116 -35 -125 -2 -9 -11 -42 -20 -72 -9 -30 -18 -65 -21 -78 -2 -13
-11 -42 -19 -65 -14 -42 -64 -218 -70 -247 -2 -8 -22 -80 -45 -160 -23 -80
-44 -152 -46 -160 -2 -8 -10 -40 -19 -70 -9 -30 -18 -63 -20 -73 -2 -9 -6 -21
-9 -25 -3 -5 -7 -19 -10 -33 -5 -24 -40 -153 -78 -282 -11 -37 -22 -66 -25
-64 -2 3 -20 60 -39 128 -44 154 -48 170 -69 244 -9 33 -25 89 -35 125 -11 36
-19 67 -19 70 0 3 -5 18 -11 34 -6 16 -20 64 -31 105 -11 42 -29 105 -39 141
-39 129 -64 215 -66 225 -1 6 -10 37 -20 70 -10 33 -19 65 -20 72 -1 7 -12 45
-24 85 -12 40 -28 96 -36 123 -7 28 -30 106 -50 175 -37 128 -72 253 -79 280
-2 8 -4 15 -5 15 -1 0 -3 8 -5 18 -2 10 -10 41 -19 70 -9 28 -38 133 -66 232
-28 99 -57 200 -65 225 -16 53 -34 121 -36 135 0 6 -5 17 -10 26 -4 9 -10 28
-13 43 -3 16 -11 49 -19 74 -22 71 -38 131 -36 134 1 2 -3 12 -9 24 -6 11 -13
32 -15 45 -3 13 -17 65 -32 114 -14 50 -28 97 -30 105 -1 8 -17 65 -35 125
-18 61 -33 115 -34 120 -1 6 -5 16 -9 23 -5 6 -6 12 -2 12 3 0 1 8 -4 19 -6
10 -13 32 -16 50 -3 17 -13 53 -21 79 -9 26 -17 52 -19 57 -1 6 -5 26 -9 45
l-7 35 -453 0 c-296 0 -453 -3 -454 -10 -1 -20 -13 -69 -18 -77 -3 -4 -7 -16
-9 -25 -6 -26 -20 -76 -55 -198 -17 -60 -33 -117 -35 -125 -2 -8 -11 -40 -20
-70 -24 -83 -24 -83 -34 -120 -5 -19 -20 -73 -34 -120 -47 -161 -129 -452
-132 -469 -2 -9 -8 -28 -14 -43 -6 -16 -9 -28 -6 -28 2 0 -3 -16 -11 -35 -8
-19 -12 -35 -9 -35 2 0 0 -12 -6 -27 -6 -16 -20 -62 -31 -103 -10 -41 -26 -94
-33 -117 -8 -23 -16 -52 -19 -65 -2 -13 -28 -104 -56 -203 -29 -99 -54 -188
-55 -198 -2 -9 -6 -21 -9 -25 -3 -5 -7 -19 -10 -33 -2 -13 -23 -89 -46 -169
-23 -80 -44 -156 -47 -169 -2 -14 -6 -28 -9 -33 -3 -4 -7 -16 -9 -25 -2 -10
-23 -88 -48 -173 -25 -85 -52 -180 -60 -210 -23 -82 -86 -306 -107 -380 -10
-36 -34 -121 -53 -190 -20 -69 -42 -146 -50 -172 -8 -26 -12 -49 -9 -52 3 -4
1 -6 -5 -6 -9 0 -27 50 -39 107 -1 7 -9 34 -17 60 -14 43 -23 81 -28 108 -1 6
-6 21 -11 35 -5 14 -11 32 -13 41 -2 8 -11 40 -20 70 -9 30 -18 63 -21 74 -2
11 -18 67 -34 125 -17 58 -33 116 -36 129 -3 14 -7 28 -10 33 -3 4 -7 16 -9
25 -4 23 -62 228 -76 271 -6 18 -13 44 -15 59 -3 15 -7 30 -10 35 -3 4 -7 16
-9 25 -2 10 -17 68 -35 128 -40 142 -38 134 -49 175 -17 64 -90 324 -100 355
-5 17 -15 50 -22 75 -7 25 -13 47 -14 50 -1 3 -5 19 -9 35 -4 17 -16 59 -27
95 -24 84 -99 349 -106 375 -3 11 -11 41 -19 66 -8 25 -16 54 -19 65 -2 10
-11 44 -20 74 -18 60 -33 116 -39 141 -5 19 -61 218 -78 274 -6 22 -12 45 -14
50 -2 12 -37 133 -65 225 -10 36 -21 74 -23 85 -2 11 -12 47 -22 80 -21 71
-19 61 -28 108 -5 20 -13 41 -20 45 -6 4 -278 7 -605 7 -474 0 -594 -2 -598
-13z"/>
</g>
</svg>
